<svg xmlns="http://www.w3.org/2000/svg" viewBox="0 0 400 300" width="100%" height="100%">
      <rect width="400" height="300" fill="#f0f7f4"/>
      <g transform="translate(60, 50)">
        <!-- Black Drip Lateral Tape -->
        <rect x="20" y="80" width="240" height="16" rx="8" fill="#1e293b"/>
        <!-- Integrated Emitter Drippers -->
        <circle cx="80" cy="88" r="5" fill="#10b981"/>
        <circle cx="160" cy="88" r="5" fill="#10b981"/>
        <circle cx="240" cy="88" r="5" fill="#10b981"/>
        <!-- Water Drops -->
        <path d="M80 98 Q80 115 80 120 A5 5 0 0 1 75 125 A5 5 0 0 1 70 120 Q70 115 80 98 Z" fill="#38bdf8"/>
        <path d="M160 98 Q160 115 160 120 A5 5 0 0 1 155 125 A5 5 0 0 1 150 120 Q150 115 160 98 Z" fill="#38bdf8"/>
        <!-- Label -->
        <rect x="50" y="150" width="180" height="26" rx="13" fill="#10b981"/>
        <text x="140" y="167" font-family="sans-serif" font-size="12" font-weight="bold" fill="#ffffff" text-anchor="middle">COMPLETE DRIP KITS &amp; TAPE</text>
      </g>
    </svg>