<svg xmlns="http://www.w3.org/2000/svg" viewBox="0 0 400 300" width="100%" height="100%">
      <rect width="400" height="300" fill="#f0f7f4"/>
      <g transform="translate(130, 30)">
        <!-- Submersible Pump Body -->
        <rect x="50" y="20" width="50" height="180" rx="6" fill="#1e293b" stroke="#0f172a" stroke-width="3"/>
        <rect x="55" y="30" width="40" height="60" rx="3" fill="#3b82f6"/>
        <!-- Stainless Steel Pump Stage Rings -->
        <line x1="50" y1="95" x2="100" y2="95" stroke="#94a3b8" stroke-width="4"/>
        <line x1="50" y1="110" x2="100" y2="110" stroke="#94a3b8" stroke-width="4"/>
        <line x1="50" y1="125" x2="100" y2="125" stroke="#94a3b8" stroke-width="4"/>
        <line x1="50" y1="140" x2="100" y2="140" stroke="#94a3b8" stroke-width="4"/>
        <!-- Suction Mesh -->
        <rect x="52" y="150" width="46" height="25" fill="#64748b"/>
        <pattern id="mesh" width="4" height="4" patternUnits="userSpaceOnUse">
          <circle cx="2" cy="2" r="1" fill="#0f172a"/>
        </pattern>
        <rect x="52" y="150" width="46" height="25" fill="url(#mesh)"/>
        <!-- Top Outlet -->
        <path d="M60 20 L60 5 L90 5 L90 20 Z" fill="#475569"/>
        <!-- Cable -->
        <path d="M85 40 Q110 50 115 100 T125 180" fill="none" stroke="#2563eb" stroke-width="5"/>
        <!-- Submersible Badge -->
        <rect x="10" y="210" width="130" height="26" rx="13" fill="#10b981"/>
        <text x="75" y="227" font-family="sans-serif" font-size="12" font-weight="bold" fill="#ffffff" text-anchor="middle">V6 / V8 BOREWELL PUMP</text>
      </g>
    </svg>